<svg xmlns="http://www.w3.org/2000/svg" width="83.765" height="14.558" viewBox="0 0 83.765 14.558">
  <path id="Path_35" data-name="Path 35" d="M8.4-8.352,4.112,1.136A3.754,3.754,0,0,1,3,2.7a2.459,2.459,0,0,1-1.5.464A3.008,3.008,0,0,1,.42,2.972a2.3,2.3,0,0,1-.856-.56l.4-.608a2.088,2.088,0,0,0,1.552.656,1.643,1.643,0,0,0,1.04-.336A3.007,3.007,0,0,0,3.36.976L3.808-.032.048-8.352H.9L4.24-.88,7.584-8.352ZM13.168.064A4.228,4.228,0,0,1,11.032-.48a3.919,3.919,0,0,1-1.5-1.512,4.38,4.38,0,0,1-.544-2.184A4.38,4.38,0,0,1,9.536-6.36a3.919,3.919,0,0,1,1.5-1.512,4.228,4.228,0,0,1,2.136-.544,4.228,4.228,0,0,1,2.136.544A3.919,3.919,0,0,1,16.8-6.36a4.38,4.38,0,0,1,.544,2.184A4.38,4.38,0,0,1,16.8-1.992,3.919,3.919,0,0,1,15.3-.48a4.228,4.228,0,0,1-2.132.544Zm0-.72a3.323,3.323,0,0,0,1.72-.448,3.217,3.217,0,0,0,1.2-1.248,3.722,3.722,0,0,0,.44-1.824A3.722,3.722,0,0,0,16.088-6a3.217,3.217,0,0,0-1.2-1.248,3.323,3.323,0,0,0-1.72-.448,3.323,3.323,0,0,0-1.72.448A3.217,3.217,0,0,0,10.248-6a3.722,3.722,0,0,0-.44,1.824,3.722,3.722,0,0,0,.44,1.824,3.217,3.217,0,0,0,1.2,1.248,3.323,3.323,0,0,0,1.72.448Zm13.968-7.7V0h-.768V-1.792A3.1,3.1,0,0,1,25.136-.424a3.67,3.67,0,0,1-1.92.488,3.5,3.5,0,0,1-2.56-.912,3.516,3.516,0,0,1-.928-2.624v-4.88h.8v4.816a2.944,2.944,0,0,0,.72,2.144,2.713,2.713,0,0,0,2.032.736,2.91,2.91,0,0,0,2.232-.88A3.325,3.325,0,0,0,26.336-3.9V-8.352ZM31.3-6.528a2.89,2.89,0,0,1,1.2-1.4,3.8,3.8,0,0,1,1.984-.488v.784l-.192-.016a2.776,2.776,0,0,0-2.176.872,3.5,3.5,0,0,0-.784,2.424V0h-.8V-8.352H31.3ZM36.464-11.2h2.592v9.088h5.616V0H36.464ZM51.36.192A6.537,6.537,0,0,1,48.216-.56a5.581,5.581,0,0,1-2.192-2.072A5.657,5.657,0,0,1,45.232-5.6a5.657,5.657,0,0,1,.792-2.968,5.581,5.581,0,0,1,2.192-2.072,6.537,6.537,0,0,1,3.144-.752,6.491,6.491,0,0,1,3.136.752,5.654,5.654,0,0,1,2.192,2.072,5.613,5.613,0,0,1,.8,2.968,5.613,5.613,0,0,1-.8,2.968A5.654,5.654,0,0,1,54.5-.56a6.491,6.491,0,0,1-3.14.752Zm0-2.208a3.554,3.554,0,0,0,1.792-.456,3.272,3.272,0,0,0,1.256-1.272A3.739,3.739,0,0,0,54.864-5.6a3.739,3.739,0,0,0-.456-1.856,3.272,3.272,0,0,0-1.256-1.272,3.554,3.554,0,0,0-1.792-.456,3.554,3.554,0,0,0-1.792.456,3.272,3.272,0,0,0-1.256,1.272A3.739,3.739,0,0,0,47.856-5.6a3.739,3.739,0,0,0,.456,1.856,3.272,3.272,0,0,0,1.256,1.272,3.554,3.554,0,0,0,1.792.456Zm15.648-3.76h2.368v4.544A6.766,6.766,0,0,1,67.264-.176a8.2,8.2,0,0,1-2.416.368,6.547,6.547,0,0,1-3.136-.744,5.538,5.538,0,0,1-2.184-2.064A5.687,5.687,0,0,1,58.736-5.6a5.687,5.687,0,0,1,.792-2.984,5.512,5.512,0,0,1,2.2-2.064,6.675,6.675,0,0,1,3.168-.744,6.933,6.933,0,0,1,2.672.5,5.294,5.294,0,0,1,2.016,1.44L67.92-7.92a3.849,3.849,0,0,0-2.9-1.264,3.953,3.953,0,0,0-1.9.448,3.214,3.214,0,0,0-1.3,1.264A3.72,3.72,0,0,0,61.36-5.6a3.688,3.688,0,0,0,.464,1.856,3.282,3.282,0,0,0,1.288,1.272,3.817,3.817,0,0,0,1.88.456,4.2,4.2,0,0,0,2.016-.48ZM77.2.192A6.537,6.537,0,0,1,74.056-.56a5.581,5.581,0,0,1-2.192-2.072A5.657,5.657,0,0,1,71.072-5.6a5.657,5.657,0,0,1,.792-2.968,5.581,5.581,0,0,1,2.192-2.072,6.537,6.537,0,0,1,3.144-.752,6.491,6.491,0,0,1,3.136.752,5.654,5.654,0,0,1,2.192,2.072,5.613,5.613,0,0,1,.8,2.968,5.613,5.613,0,0,1-.8,2.968A5.654,5.654,0,0,1,80.336-.56,6.491,6.491,0,0,1,77.2.192Zm0-2.208a3.554,3.554,0,0,0,1.792-.456,3.272,3.272,0,0,0,1.256-1.272A3.739,3.739,0,0,0,80.7-5.6a3.739,3.739,0,0,0-.456-1.856,3.272,3.272,0,0,0-1.256-1.272A3.554,3.554,0,0,0,77.2-9.184a3.554,3.554,0,0,0-1.792.456,3.272,3.272,0,0,0-1.256,1.272A3.739,3.739,0,0,0,73.7-5.6a3.739,3.739,0,0,0,.456,1.856,3.272,3.272,0,0,0,1.256,1.272A3.554,3.554,0,0,0,77.2-2.016Z" transform="translate(0.436 11.393)"/>
</svg>
