<svg id="reference_4" xmlns="http://www.w3.org/2000/svg" width="179.307" height="40" viewBox="0 0 179.307 40">
  <g id="Group_10" data-name="Group 10">
    <path id="Path_22" data-name="Path 22" d="M55.953,6.259a7.158,7.158,0,0,0-5.035-5.035C46.447,0,28.565,0,28.565,0S10.682,0,6.212,1.176A7.3,7.3,0,0,0,1.176,6.259C0,10.729,0,20,0,20s0,9.318,1.176,13.741a7.158,7.158,0,0,0,5.035,5.035C10.729,40,28.565,40,28.565,40s17.882,0,22.353-1.176a7.158,7.158,0,0,0,5.035-5.035c1.176-4.471,1.176-13.741,1.176-13.741S57.176,10.729,55.953,6.259Z"/>
    <path id="Path_23" data-name="Path 23" d="M48.6,41.429l14.871-8.565L48.6,24.3Z" transform="translate(-25.729 -12.865)" fill="#fff"/>
  </g>
  <g id="Group_12" data-name="Group 12" transform="translate(62.824 1.553)">
    <g id="Group_11" data-name="Group 11">
      <path id="Path_24" data-name="Path 24" d="M172.806,49.5a6.088,6.088,0,0,1-2.4-3.576,23.579,23.579,0,0,1-.706-6.4V35.9a22.138,22.138,0,0,1,.8-6.494,6.713,6.713,0,0,1,2.541-3.576,8.3,8.3,0,0,1,4.565-1.129,7.969,7.969,0,0,1,4.471,1.129,6.528,6.528,0,0,1,2.447,3.576,21.7,21.7,0,0,1,.8,6.494v3.624a21.988,21.988,0,0,1-.753,6.447,6.529,6.529,0,0,1-2.447,3.576,8.257,8.257,0,0,1-4.612,1.129,8.891,8.891,0,0,1-4.706-1.176Zm6.353-3.953a11.746,11.746,0,0,0,.471-4V33.735a11.794,11.794,0,0,0-.471-3.953,1.689,1.689,0,0,0-3.247,0,11.794,11.794,0,0,0-.471,3.953v7.812a11.746,11.746,0,0,0,.471,4,1.653,1.653,0,0,0,1.647,1.224A1.623,1.623,0,0,0,179.159,45.547Z" transform="translate(-152.665 -14.629)"/>
      <path id="Path_25" data-name="Path 25" d="M354.759,39.465v1.271a34.1,34.1,0,0,0,.141,3.624,3.011,3.011,0,0,0,.612,1.741,1.652,1.652,0,0,0,1.412.565,1.765,1.765,0,0,0,1.741-.988,8.641,8.641,0,0,0,.518-3.294l4.847.282a4.848,4.848,0,0,1,.047.894c0,2.306-.612,4.047-1.882,5.176a7.8,7.8,0,0,1-5.365,1.694c-2.776,0-4.706-.894-5.835-2.635s-1.7-4.424-1.7-8.1V35.324c0-3.765.565-6.494,1.741-8.235s3.153-2.588,5.929-2.588a7.936,7.936,0,0,1,4.471,1.082,5.757,5.757,0,0,1,2.165,3.294,24.092,24.092,0,0,1,.612,6.212v4.282h-9.459Zm.706-10.541a3.6,3.6,0,0,0-.565,1.741,34.506,34.506,0,0,0-.141,3.671v1.788H358.9V34.335a35.734,35.734,0,0,0-.141-3.671,3.224,3.224,0,0,0-.612-1.741,1.7,1.7,0,0,0-1.318-.518,1.428,1.428,0,0,0-1.364.519Z" transform="translate(-247.747 -14.524)"/>
      <path id="Path_26" data-name="Path 26" d="M139.9,29.2,133.5,6h5.6l2.259,10.494q.847,3.882,1.271,6.635h.141c.188-1.318.612-3.482,1.271-6.588L146.394,6h5.6L145.5,29.2V40.306h-5.553V29.2Z" transform="translate(-133.5 -4.729)"/>
      <path id="Path_27" data-name="Path 27" d="M224.394,25.7V50.782H219.97l-.471-3.059h-.141a5.792,5.792,0,0,1-5.412,3.482,4.28,4.28,0,0,1-3.671-1.647c-.8-1.082-1.176-2.776-1.176-5.129V25.7h5.647V44.1a5.736,5.736,0,0,0,.376,2.4,1.269,1.269,0,0,0,1.224.706,2.415,2.415,0,0,0,1.412-.471,2.293,2.293,0,0,0,.988-1.129V25.7Z" transform="translate(-173.524 -15.159)"/>
      <path id="Path_28" data-name="Path 28" d="M285.894,25.7V50.782H281.47L281,47.724h-.141a5.792,5.792,0,0,1-5.412,3.482,4.28,4.28,0,0,1-3.671-1.647c-.8-1.082-1.176-2.776-1.176-5.129V25.7h5.647V44.1a5.737,5.737,0,0,0,.376,2.4,1.269,1.269,0,0,0,1.224.706,2.414,2.414,0,0,0,1.412-.471,2.293,2.293,0,0,0,.988-1.129V25.7Z" transform="translate(-206.082 -15.159)"/>
      <path id="Path_29" data-name="Path 29" d="M255.406,10.565h-5.6V40.306H244.3V10.565h-5.6V6h16.706Z" transform="translate(-189.194 -4.729)"/>
      <path id="Path_30" data-name="Path 30" d="M325.594,17.841a6.35,6.35,0,0,0-1.647-3.435,4.493,4.493,0,0,0-3.153-1.082,5.073,5.073,0,0,0-2.918.894,5.756,5.756,0,0,0-2.071,2.306h-.047V3.3H310.3V38.876h4.659l.565-2.353h.141a4.809,4.809,0,0,0,1.976,2.024,6.113,6.113,0,0,0,2.918.753,4.41,4.41,0,0,0,4.188-2.635c.894-1.741,1.365-4.518,1.365-8.235V24.476a37.71,37.71,0,0,0-.518-6.635Zm-5.176,10.212a32.57,32.57,0,0,1-.235,4.282,4.788,4.788,0,0,1-.753,2.212,1.833,1.833,0,0,1-1.412.659,2.331,2.331,0,0,1-1.271-.329,2.718,2.718,0,0,1-.941-.988V19.676a3.849,3.849,0,0,1,.988-1.694,2.283,2.283,0,0,1,1.506-.659,1.526,1.526,0,0,1,1.318.659,5.381,5.381,0,0,1,.659,2.259,37.939,37.939,0,0,1,.188,4.518v3.294Z" transform="translate(-227.1 -3.3)"/>
    </g>
  </g>
</svg>
