<svg xmlns="http://www.w3.org/2000/svg" width="210.995" height="40.002" viewBox="0 0 210.995 40.002">
  <g id="Yahoo_Logo" transform="translate(-130.354 -177.434)">
    <path id="path2217" d="M187.915,194.209c-1.032.1-5.33,1.065-6.774,1.374-1.547.412-15.677,11.329-16.606,14.009a19.07,19.07,0,0,0-.309,3.7l-.1,2.167a42.844,42.844,0,0,0,.635,5.379c.929.207,7.653.026,8.89.232l-.152,2.773c-1.209-.088-9.747-.067-14.625-.067-2.476,0-10.436.273-12.881.2l.462-2.637c1.341-.1,6.893.24,8.114-1.049.606-.639.413-1.324.413-5.037V213.5a27.75,27.75,0,0,0-.207-3.818c-.515-1.547-12.962-17.088-16.159-19.563-.929-.309-6.747-.891-8.19-1.2l-.072-2.376c.72-.361,7.189.088,13.467-.145,4.126-.152,13.54,0,14.7.138l-.3,2.093c-1.237.31-7.2.424-8.746.837,4.023,5.982,10.383,13.684,12.447,16.675,1.135-1.65,11.106-8.51,11.415-10.882-1.548-.311-6.671-1.048-7.5-1.048l-.49-2.7c1.4-.22,8.789,0,12.46,0,3.168,0,9.938,0,11.862.158l-1.759,2.543" transform="translate(0 -6.552)"/>
    <path id="path2219" d="M319.25,235.194l-.064-.41c-1.17,2.731-3.157,7.022-3.547,8.061h6.4c-.78-2.016-2.206-5.959-2.791-7.649m17,20.68c-.454-.066-5.623-.065-7.507-.065-1.106,0-6.735-.033-7.711-.033l.293-2.415c1.3-.065,3.72-.591,4.826-.721-.715-1.624-3.075-6.784-3.6-7.759a75.263,75.263,0,0,0-7.641.414c-.26.455-2.124,2.283-2.448,4.753.91.2,2.656.57,3.7.7l-.385,2.468c-1.1-.065-5.512.065-6.552,0-.976,0-5.505.011-6.351.141l.8-2.609c1.04-.13,3.436-.875,4.345-1.069,1.366-1.95,7.689-14.309,8.209-15.48-.846-.2-2.282-.875-3.193-1l-.125-1.786c1.105.066,6.6.231,7.183.2,1.307-.064,6.159-.04,7.265-.1l-.41,1.754a29.732,29.732,0,0,0-3.472.734c.455,1.365,2.266,5.766,3.631,9.016,1.04,2.341,2.767,6.928,4.392,9.594,1.1.2,3.64.939,4.81,1l.066.651Z" transform="translate(-127.024 -39.739)"/>
    <path id="path2221" d="M460.093,225.1c-.9-.069-5.211-.063-7.417,0-1.769.05-5.972-.161-7.973-.074l-.153-2.451c.689-.07,4.993-.362,5.82-.5a26.556,26.556,0,0,0,.144-4.753l-.106-2.886c-2.207,0-16.8.759-17.416.827l-1.066.139a29.849,29.849,0,0,0,.483,6.623c1.173.206,5.381.482,6.277.621l-.054,2.671c-1.035-.069-7.506,0-9.507,0-2.413,0-8.284-.052-9.663.017l.187-2.758c1.1-.07,5.276-.48,6.173-.618.138-1.8.207-4.622.207-7.588v-3.656c0-1.241-.069-4.828-.138-6.071-.9-.136-5.069-.416-6.311-.484l-.22-2.089c.828.07,6.587-.088,9.622-.088,2.828,0,9.241.056,10-.014l-.225,2.19c-1.31.069-5.656.414-6.415.551a21.487,21.487,0,0,0-.415,5.243l-.1,1.726c1.241,0,16.63-.061,18.546-.334v-2.377c0-3.035.471-6.316.127-7.214a61.516,61.516,0,0,0-6.182-.855l.184-2.2c.828.07,4.7.046,7.6.115,3.035,0,7.445.125,8.341-.013l-.2,1.814c-.9.07-4.9,1.081-4.9,1.081a23.492,23.492,0,0,0-.072,4.609c.166,2.258.216,6.7.216,6.7.114,4.944.419,8.94.144,9.147-.332.247,3.167.461,4.132.6l.378.655-.045,1.7" transform="translate(-212.784 -15.654)"/>
    <path id="path2223" d="M605.935,224.853c.25-6.971-5.207-8.827-12.1-8.354-3.607.248-10.946,2.155-10.946,8.354,0,6.127,5.63,9.445,13.142,8.79,5.814-.506,8.866-2.647,9.615-5.621l.289-3.168m5.545-.576c.327,8.424-7.365,12.6-17.357,12.6a26.646,26.646,0,0,1-13.54-3.385c-3.371-2.023-3.929-4.647-3.929-7.929,0-6.784,7.385-12.408,18.691-12.334,4.3,0,8.451.656,11.8,3.271,2.992,2.333,3.5,3.492,4.042,6.045Z" transform="translate(-328.593 -26.357)"/>
    <path id="path2225" d="M881.437,212.11l-2.393-.205-.026-5.184,3.03.378,2.716.126-.754,5.076-2.573-.19m3.083-9.157-4.466-.433c.469-2.258.061-19.6.024-21.445l-.23-3.642c1.244.245,1.056.116,6.306.669,3.2.335,3.612.479,4.663.52l-1.372,4.319c-1.171,3.458-4.565,18.858-4.925,20.011Z" transform="translate(-551.209)"/>
    <path id="path2227" d="M750.982,208.6c.475-7.575-6.823-10.334-14.691-9.795-4.118.282-11.811,2.717-11.811,9.795,0,6.994,6.439,10.519,15.017,9.772,6.635-.578,9.4-3.075,10.91-6.459a11.066,11.066,0,0,0,.575-3.313m5.952-1.119c.589,7.889-8.515,14.441-19.924,14.441-4.746,0-8.786-.575-13.467-3.672-3.85-2.547-5.689-4.754-6.17-9.1-.852-7.7,8.431-14.165,21.338-14.082,4.913,0,9.647.747,13.477,3.734,3.414,2.663,4.011,5.19,4.635,8.106Z" transform="translate(-432.158 -12.986)"/>
    <path id="path2229" d="M913.178,292.929h.462c.4,0,.789-.02.789-.5,0-.408-.355-.456-.66-.456h-.591v.952m-.449-1.32h1.115c.7,0,1.034.278,1.034.844a.763.763,0,0,1-.782.809l.851,1.307h-.483l-.8-1.272h-.483v1.272h-.449V291.61Zm.965,3.647a2.165,2.165,0,1,0-2.081-2.164,2.1,2.1,0,0,0,2.081,2.168Zm0-4.694a2.525,2.525,0,1,1-1.791.74,2.531,2.531,0,0,1,1.791-.74Z" transform="translate(-574.877 -83.292)"/>
  </g>
</svg>
