<svg xmlns="http://www.w3.org/2000/svg" width="121.514" height="40.006" viewBox="0 0 121.514 40.006">
  <g id="Google_2015_logo" transform="translate(-0.36 -0.468)">
    <path id="Path_3" data-name="Path 3" d="M91.3,35A10.027,10.027,0,1,1,81.277,25,9.872,9.872,0,0,1,91.3,35Zm-4.389,0a5.652,5.652,0,1,0-11.275,0,5.652,5.652,0,1,0,11.275,0Z" transform="translate(-38.943 -13.475)"/>
    <path id="Path_4" data-name="Path 4" d="M139.3,35a10.027,10.027,0,1,1-10.027-10A9.872,9.872,0,0,1,139.3,35Zm-4.389,0a5.652,5.652,0,1,0-11.275,0,5.652,5.652,0,1,0,11.275,0Z" transform="translate(-65.312 -13.475)"/>
    <path id="Path_5" data-name="Path 5" d="M186.392,25.6V43.549c0,7.382-4.353,10.4-9.5,10.4a9.519,9.519,0,0,1-8.86-5.89l3.822-1.591a5.521,5.521,0,0,0,5.034,3.547c3.294,0,5.336-2.032,5.336-5.858V42.715h-.153a6.806,6.806,0,0,1-5.264,2.271,10,10,0,0,1,0-19.986,6.927,6.927,0,0,1,5.264,2.235h.153V25.608h4.169Zm-3.858,9.428c0-3.52-2.348-6.093-5.336-6.093a5.78,5.78,0,0,0-5.566,6.093,5.737,5.737,0,0,0,5.566,6.021c2.988,0,5.336-2.534,5.336-6.017Z" transform="translate(-91.669 -13.475)"/>
    <path id="Path_6" data-name="Path 6" d="M219.781,3V32.292H215.5V3Z" transform="translate(-118.186 -1.39)"/>
    <path id="Path_7" data-name="Path 7" d="M243.93,38.28l3.407,2.271a9.949,9.949,0,0,1-8.328,4.43,9.78,9.78,0,0,1-9.919-10c0-5.944,4.277-10,9.428-10,5.187,0,7.724,4.128,8.553,6.359l.455,1.136L234.164,38.01a5.087,5.087,0,0,0,4.845,3.028,5.7,5.7,0,0,0,4.921-2.767Zm-10.487-3.6,8.932-3.709a3.87,3.87,0,0,0-3.709-2.118,5.483,5.483,0,0,0-5.223,5.831Z" transform="translate(-125.652 -13.47)"/>
    <path id="Path_8" data-name="Path 8" d="M16.1,18.92V14.679H30.39a14.05,14.05,0,0,1,.212,2.56,14,14,0,0,1-3.673,9.919A14.192,14.192,0,0,1,16.1,31.511,15.738,15.738,0,0,1,.36,15.991,15.738,15.738,0,0,1,16.106.47,14.789,14.789,0,0,1,26.741,4.747L23.749,7.739A10.81,10.81,0,0,0,16.1,4.711,11.133,11.133,0,0,0,4.97,15.991,11.133,11.133,0,0,0,16.1,27.27a10.383,10.383,0,0,0,7.837-3.1,8.79,8.79,0,0,0,2.3-5.25Z"/>
  </g>
</svg>
