<svg xmlns="http://www.w3.org/2000/svg" width="188.763" height="40" viewBox="0 0 188.763 40">
  <g id="Vrstva_1" transform="translate(-203.047 -236.802)">
    <path id="Path_31" data-name="Path 31" d="M236.071,241.316c2.209,1.128,4.325,2.021,5.359,4.56,1.034,2.491-1.081,12.926-1.081,19.883v.987c.094,2.491-.893,7.38-3.008,6.2-.705-.376-1.692-2.444-2.491-4.8-1.316-3.807-.235-13.256-1.316-13.444a49.24,49.24,0,0,1-7.9,6.628c-2.914,1.88-3.854-.7-4.372-2.4a29.55,29.55,0,0,0-3.572-7c-.376-.282-.423.141-.47.376-.188.611-1.128,6.957-2.115,10.435-1.081,3.713-3.619,9.871-4.842,11.328-1.175,1.457-6.111,2.679-7.145,2.726-.658.141,3.478-8.226,4.465-11.751a69.258,69.258,0,0,0,3.76-17.674,63.946,63.946,0,0,0-.141-8.179c0-1.363,1.363-2.068,2.162-2.256a4.744,4.744,0,0,1,4.842,1.645c1.175,1.316,2.961,5.594,3.478,6.675.611,1.316,3.243,7.38,3.666,8.79a42.135,42.135,0,0,0,5.218-4.936c2.115-2.3,4.466-6.111,4.748-8.038.282-.094.517.094.752.235Z"/>
    <path id="Path_32" data-name="Path 32" d="M344,276.317s.47,6.111,2.538,7.286c.658.47,2.585,2.162,3.337-3.431a47.665,47.665,0,0,0-.047-8.743,23.762,23.762,0,0,0,12.409-3.948,8.791,8.791,0,0,0,2.914-4.983c.611-2.3.893-4.936.47-6.393-.47-1.645-1.833-1.739-4.654,1.833-3.2,4.089-17.11,9.4-17.439,2.726a46.147,46.147,0,0,1,.235-4.748c.141-1.5-.752-2.209-1.786-1.128-2.021,2.068-2.538,4.513-2.068,8.743.282,2.444,1.786,4.748,3.008,5.265C342.915,269.266,344,276.317,344,276.317Zm-5.876-7.239c1.739-1.88,1.175-8.226-5.406-11.328s-18.567-5.97-25.43-1.88c-1.645.987,1.6,6.91,3.666,4.936,3.9-3.76,23.268.564,22.328,4.23-.423,1.645-4.042,1.739-5.876,1.88-1.316-3.29-3.384-4.8-4.748-4.513-1.269.282-1.692,1.5-1.88,4.654-4.513.094-9.777.141-10.247.141-1.833.047-2.115-.047-3.713-2.444-.564-.8-6.111-10.482-7.286-11.328a1.093,1.093,0,0,0-1.739.47c-.329,1.6-6.44,13.256-6.675,13.726-.376.658-.611,1.222-1.363,1.41-.7.188-1.457.094-2.162.282-.893.235-1.128.987-1.269,1.786a10.8,10.8,0,0,0-.235,2.115c0,.517-.094,1.457.611,1.6.658.141.564,1.269.235,1.88a4.448,4.448,0,0,0-1.034,2.679c.047,1.269,1.692,2.115,2.021,2.914.188.47,1.88-2.961,2.3-3.525,1.786-2.538,1.645-3.055,4.089-3.243.893-.047,6.158-.47,7.944-.658.658-.047,1.927-.188,2.444.235.658.517,6.158,6.863,7.145,7.192.987.376,1.5-.141,1.692-1.034.282-1.316-.47-2.585-1.081-3.713-.329-.611-.658-1.222-.94-1.88a1.827,1.827,0,0,1-.047-1.833c.329-.376,1.034-.423,1.5-.517.282-.094,4-.47,7.521-.8-.094,3.384.188,6.957,2.068,8.085,2.914,1.692,2.773,2.068,4.136.846s.423-7.944.329-8.884c-.23-1.413,8.372-.52,11.1-3.481Zm-36.288-1.363c-.094.141-.376.141-.376.141l-2.679.282h-1.786l-.188-.047-.141-.047-.094-.094-.047-.094-.047-.141v-.141l.047-.141,2.773-4.7s.188-.423.423-.376c.188,0,.282.235.282.235l1.88,4.748c-.051,0,.043.234-.051.375ZM419.3,274.2c-3.1.235-6.017.752-9.166.47a9.229,9.229,0,0,1-3.619-.752c-2.538-1.645,6.3-4.607,7.38-4.983,3.055-1.081,9.213-2.867,9.213-2.867s5.782-1.457,5.97-4.56c.188-3.76-3.666-5.5-6.675-6.44a32.191,32.191,0,0,0-3.713-.611,22.971,22.971,0,0,0-2.538-.141,32.18,32.18,0,0,0-4.748.282c-1.645.188-5.124.282-5.641,2.35-.235,1.034-1.457,3.2-.47,4.136,1.034.987,2.773.611,4.042.47,1.786-.188,3.525-.517,5.312-.7,1.316-.141,3.008-.423,4.089.564,1.316,1.175-2.162,2.3-2.867,2.632-2.632,1.128-5.406,1.927-8.085,3.055-2.491,1.034-4.983,2.021-7.427,3.2a26.8,26.8,0,0,0-3.2,1.833l-.517-.329-3.055.329-3.055.235c-2.068.188-4.136.235-6.2.329-1.034.047-2.632.094-3.431-.7-1.786-1.692-.8-4.042.376-5.641a16.414,16.414,0,0,1,4.936-4.23,17.9,17.9,0,0,1,4-1.786,20.143,20.143,0,0,1,2.914-.658,4.467,4.467,0,0,0,.47.8,10.846,10.846,0,0,0,2.585-.94c.7-.376,1.692-1.081,1.692-1.974a3.418,3.418,0,0,0-1.739-2.679,5.631,5.631,0,0,0-3.149-.8,23.4,23.4,0,0,0-3.619.235,15.648,15.648,0,0,0-2.491.517,20.03,20.03,0,0,0-3.9,1.6,17.227,17.227,0,0,0-4.513,3.525,14.2,14.2,0,0,0-1.645,2.115,13.309,13.309,0,0,0-1.363,3.149,13.769,13.769,0,0,0,.705,9.589,11.315,11.315,0,0,0,4.23,4.8,11.465,11.465,0,0,0,7.944,1.41,17.428,17.428,0,0,0,3.149-.94,21.069,21.069,0,0,0,3.2-1.363c.188-.094,2.35-1.363,2.491-1.175.329.423.517.987.893,1.41a5.315,5.315,0,0,0,1.222,1.081,6.3,6.3,0,0,0,3.008,1.081,69.981,69.981,0,0,0,8.32.517,61.955,61.955,0,0,0,6.628-.329c1.41-.141,2.867-.329,4.277-.47A35.951,35.951,0,0,0,432,277.917a10.534,10.534,0,0,0,3.713-2.82,7.288,7.288,0,0,0-1.363-.658,18.673,18.673,0,0,0-9.119-.8c-1.41.188-2.773.329-4.184.423-.517.047-1.128.094-1.739.141Zm-46.441,3.478a3.78,3.78,0,0,0-.188-1.5,3.982,3.982,0,0,0-2.726-2.4,4.144,4.144,0,0,0-3.149.658,4.092,4.092,0,0,0-1.175,1.5,4.43,4.43,0,0,0,.282,4,3.828,3.828,0,0,0,5.594.329,3.63,3.63,0,0,0,1.361-2.585Z" transform="translate(-43.904 -8.677)"/>
  </g>
</svg>
