<svg xmlns="http://www.w3.org/2000/svg" width="132.748" height="40.002" viewBox="0 0 132.748 40.002">
  <g id="reference_1" transform="translate(0.004)">
    <path id="path8" d="M204.363,198.028c-7.713,5.685-18.894,8.719-28.519,8.719A51.607,51.607,0,0,1,141,193.452c-.722-.653-.075-1.543.792-1.034a70.122,70.122,0,0,0,34.858,9.245,69.315,69.315,0,0,0,26.59-5.437c1.306-.555,2.4.855,1.121,1.8" transform="translate(-122.017 -166.746)" fill-rule="evenodd"/>
    <path id="path10" d="M581.534,185.294c-.982-1.26-6.517-.6-9-.3-.757.092-.872-.566-.191-1.04,4.409-3.1,11.642-2.207,12.486-1.167s-.22,8.3-4.362,11.758c-.636.532-1.242.248-.959-.456.93-2.323,3.016-7.529,2.028-8.794" transform="translate(-495.982 -157.682)" fill-rule="evenodd"/>
    <path id="path12" d="M573.005,8.219V5.2a.744.744,0,0,1,.763-.763h13.5a.752.752,0,0,1,.78.763V7.786a4.249,4.249,0,0,1-1.017,1.9l-7,9.99a14.909,14.909,0,0,1,7.7,1.652,1.374,1.374,0,0,1,.716,1.173v3.218c0,.439-.485.953-.994.688a15.555,15.555,0,0,0-14.266.023c-.468.254-.959-.254-.959-.693V22.675a3.647,3.647,0,0,1,.5-2.074L580.84,8.976h-7.055a.747.747,0,0,1-.78-.757" transform="translate(-496.281 -3.851)" fill-rule="evenodd"/>
    <path id="path14" d="M175.3,24.508h-4.1a.776.776,0,0,1-.734-.7V2.726a.771.771,0,0,1,.792-.757h3.831a.774.774,0,0,1,.745.7V5.43h.075a5.422,5.422,0,0,1,5.408-3.906c2.571,0,4.177,1.242,5.333,3.906a6.067,6.067,0,0,1,10.429-1.6c1.3,1.774,1.034,4.351,1.034,6.61L198.1,23.745a.776.776,0,0,1-.792.763h-4.1a.781.781,0,0,1-.74-.763V12.571a26.391,26.391,0,0,0-.116-3.952A2.139,2.139,0,0,0,189.938,6.8a2.729,2.729,0,0,0-2.456,1.728,12.763,12.763,0,0,0-.381,4.039V23.745a.776.776,0,0,1-.792.763h-4.1a.777.777,0,0,1-.74-.763l-.006-11.174c0-2.352.387-5.813-2.531-5.813-2.952,0-2.837,3.374-2.837,5.813V23.745a.776.776,0,0,1-.792.763" transform="translate(-147.835 -1.321)" fill-rule="evenodd"/>
    <path id="path16" d="M718.556,1.524c6.1,0,9.4,5.235,9.4,11.891,0,6.431-3.646,11.533-9.4,11.533-5.986,0-9.245-5.235-9.245-11.758,0-6.564,3.3-11.665,9.245-11.665m.035,4.3c-3.028,0-3.218,4.125-3.218,6.7s-.04,8.077,3.184,8.077c3.184,0,3.334-4.437,3.334-7.141a19.5,19.5,0,0,0-.612-5.593,2.57,2.57,0,0,0-2.687-2.04" transform="translate(-615.161 -1.321)" fill-rule="evenodd"/>
    <path id="path18" d="M877.687,24.508H873.6a.781.781,0,0,1-.74-.763l-.006-21.089a.777.777,0,0,1,.792-.688h3.808a.786.786,0,0,1,.734.589V5.782h.075c1.15-2.883,2.762-4.258,5.6-4.258a5.39,5.39,0,0,1,4.8,2.484c1.075,1.687,1.075,4.524,1.075,6.564V23.844a.789.789,0,0,1-.792.664h-4.12a.778.778,0,0,1-.728-.664V12.392c0-2.305.266-5.68-2.571-5.68A2.685,2.685,0,0,0,879.143,8.4a9.33,9.33,0,0,0-.653,3.992V23.745a.79.79,0,0,1-.8.763" transform="translate(-756.994 -1.321)" fill-rule="evenodd"/>
    <path id="path28" d="M417.842,13.116a8.036,8.036,0,0,1-.768,4.356,3.338,3.338,0,0,1-2.843,1.866c-1.577,0-2.5-1.2-2.5-2.976,0-3.5,3.137-4.137,6.113-4.137v.89m4.143,10.013a.858.858,0,0,1-.971.1,10.014,10.014,0,0,1-2.357-2.739c-2.253,2.3-3.854,2.987-6.772,2.987-3.461,0-6.148-2.132-6.148-6.4a6.972,6.972,0,0,1,4.38-6.714c2.23-.982,5.344-1.156,7.725-1.427V8.4a5.24,5.24,0,0,0-.5-2.976,2.735,2.735,0,0,0-2.305-1.069,3.125,3.125,0,0,0-3.3,2.467.859.859,0,0,1-.716.751l-3.981-.428a.724.724,0,0,1-.612-.861C407.338,1.456,411.706,0,415.612,0c2,0,4.611.532,6.188,2.045,2,1.866,1.808,4.356,1.808,7.066v6.4a5.618,5.618,0,0,0,1.548,3.808.777.777,0,0,1-.017,1.092c-.838.7-2.328,2-3.149,2.727l-.006-.012" transform="translate(-351.882)" fill-rule="evenodd"/>
    <path id="path30" d="M12.1,13.116a8.036,8.036,0,0,1-.768,4.356,3.331,3.331,0,0,1-2.843,1.866c-1.577,0-2.5-1.2-2.5-2.976,0-3.5,3.137-4.137,6.107-4.137v.89m4.143,10.013a.858.858,0,0,1-.971.1,10.114,10.114,0,0,1-2.357-2.739c-2.253,2.3-3.848,2.987-6.772,2.987C2.692,23.476,0,21.344,0,17.074A6.98,6.98,0,0,1,4.38,10.36C6.61,9.378,9.724,9.2,12.1,8.933V8.4a5.286,5.286,0,0,0-.5-2.976A2.749,2.749,0,0,0,9.3,4.357,3.131,3.131,0,0,0,6,6.824a.86.86,0,0,1-.711.751L1.3,7.147a.728.728,0,0,1-.612-.861C1.606,1.456,5.969,0,9.874,0c2,0,4.611.532,6.188,2.045,2,1.866,1.808,4.356,1.808,7.066v6.4a5.618,5.618,0,0,0,1.548,3.808.772.772,0,0,1-.012,1.092c-.838.7-2.328,2-3.149,2.727l-.012-.012" fill-rule="evenodd"/>
  </g>
</svg>
