<svg id="reference_7" xmlns="http://www.w3.org/2000/svg" xmlns:xlink="http://www.w3.org/1999/xlink" width="207.442" height="40" viewBox="0 0 207.442 40">
  <defs>
    <clipPath id="clip-path">
      <rect id="Rectangle_4" data-name="Rectangle 4" width="207.442" height="40"/>
    </clipPath>
  </defs>
  <g id="Group_2" data-name="Group 2" clip-path="url(#clip-path)">
    <path id="Path_9" data-name="Path 9" d="M16.124,6.2c-2.481,0-3.1,1.24-3.1,3.411v4.031h6.512l-.62,6.512H13.023V39.69H5.271V20.155H0V13.643H5.271V9.922C5.271,3.411,7.752,0,15.194,0a17.741,17.741,0,0,1,4.341.31V6.2"/>
  </g>
  <g id="Group_3" data-name="Group 3" clip-path="url(#clip-path)">
    <path id="Path_10" data-name="Path 10" d="M6.5,16.913C6.5,9.781,9.911,4.2,17.043,4.2c4.031,0,6.2,1.86,7.442,4.651V4.82h7.442V30.557H24.484V26.526c-1.24,2.481-3.411,4.341-7.442,4.341C9.911,30.867,6.5,25.6,6.5,18.153m7.752.62c0,3.721,1.55,6.512,4.961,6.512,3.1,0,4.961-2.481,4.961-5.891V16.6c0-3.721-1.55-5.891-4.961-5.891-3.411-.31-4.961,2.481-4.961,6.2Z" transform="translate(13.655 8.823)"/>
  </g>
  <g id="Group_4" data-name="Group 4" clip-path="url(#clip-path)">
    <path id="Path_11" data-name="Path 11" d="M29.033,4.3c3.1,0,5.891.62,7.442,1.86l-1.86,5.581a11.991,11.991,0,0,0-5.271-1.24c-4.341,0-6.2,2.481-6.2,6.512v1.55c0,4.031,1.86,6.512,6.2,6.512a11.991,11.991,0,0,0,5.271-1.24l1.86,5.581c-1.55,1.24-4.341,1.86-7.442,1.86-9.3,0-13.333-4.961-13.333-12.713v-1.55C15.7,8.951,19.731,4.3,29.033,4.3" transform="translate(32.982 9.033)"/>
  </g>
  <g id="Group_5" data-name="Group 5" clip-path="url(#clip-path)">
    <path id="Path_12" data-name="Path 12" d="M22.7,18.564V16.393C22.7,8.951,26.731,4.3,35.413,4.3c8.062,0,11.473,4.961,11.473,12.093v4.031H30.452c.31,3.411,1.86,4.961,6.2,4.961a25.062,25.062,0,0,0,8.372-1.55l1.55,5.271a28.254,28.254,0,0,1-9.922,1.86c-10.233,0-13.953-4.651-13.953-12.4m7.752-3.411h9.3v-.62c0-2.791-1.24-4.961-4.651-4.961-3.1,0-4.651,2.171-4.651,5.581" transform="translate(47.688 9.033)"/>
  </g>
  <g id="Group_6" data-name="Group 6" clip-path="url(#clip-path)">
    <path id="Path_13" data-name="Path 13" d="M57.336,27.6c0,7.132-3.411,12.713-10.543,12.713-4.031,0-6.512-1.86-7.752-4.341V40H31.6V.62L39.352,0V17.364a8.081,8.081,0,0,1,7.132-4.031c7.132,0,10.543,5.271,10.543,12.713m-7.442-.31c0-3.721-1.55-6.2-5.271-6.2-3.1,0-4.961,2.171-4.961,5.891v2.481c0,3.721,1.86,5.891,4.961,5.891,3.721,0,5.271-2.791,5.271-6.2Z" transform="translate(66.384)"/>
  </g>
  <g id="Group_7" data-name="Group 7" clip-path="url(#clip-path)">
    <path id="Path_14" data-name="Path 14" d="M40.7,18.253v-1.24C40.7,9.571,45.041,4.3,53.413,4.3c8.682,0,13.023,5.271,13.023,12.713v1.24c0,7.442-4.341,12.713-12.713,12.713C45.041,30.967,40.7,25.7,40.7,18.253m17.984-1.86c0-3.411-1.55-6.2-4.961-6.2-3.721,0-4.961,2.791-4.961,6.2v2.481c0,3.411,1.55,6.2,4.961,6.2,3.721,0,4.961-2.791,4.961-6.2Z" transform="translate(85.502 9.033)"/>
  </g>
  <g id="Group_8" data-name="Group 8" clip-path="url(#clip-path)">
    <path id="Path_15" data-name="Path 15" d="M49.8,18.253v-1.24C49.8,9.571,54.141,4.3,62.513,4.3c8.682,0,12.713,5.271,12.713,12.713v1.24c0,7.442-4.341,12.713-12.713,12.713S49.8,25.7,49.8,18.253m17.984-1.86c0-3.411-1.55-6.2-4.961-6.2-3.721,0-4.961,2.791-4.961,6.2v2.481c0,3.411,1.55,6.2,4.961,6.2,3.721,0,4.961-2.791,4.961-6.2Z" transform="translate(104.619 9.033)"/>
  </g>
  <g id="Group_9" data-name="Group 9" clip-path="url(#clip-path)">
    <path id="Path_16" data-name="Path 16" d="M66.852,26.047l7.752-12.4h8.372L74.6,26.357,83.286,39.69H74.914L66.852,26.977V39.69H59.1V.62L66.852,0" transform="translate(124.156)"/>
  </g>
</svg>
