<svg xmlns="http://www.w3.org/2000/svg" width="187.255" height="40" viewBox="0 0 187.255 40">
  <g id="Microsoft_logo__2012_" data-name="Microsoft_logo_(2012)" transform="translate(-361 585)">
    <path id="Path_17" data-name="Path 17" d="M181.74,36.906l-1.116,3.163h-.093a22.452,22.452,0,0,0-1.085-3.1l-5.986-15.04H167.6V45.9h3.876V31.108c0-.93,0-1.984-.031-3.287-.031-.651-.093-1.147-.124-1.519h.093a14.489,14.489,0,0,0,.558,2.047l7.194,17.488H181.9l7.132-17.643a18.773,18.773,0,0,0,.465-1.891h.093c-.093,1.767-.155,3.349-.186,4.31V45.805h4.124V21.867H187.88Zm15.69-8.279h4.031V45.805H197.43Zm2.047-7.256a2.415,2.415,0,0,0-1.7.682,2.286,2.286,0,0,0,0,3.318,2.39,2.39,0,0,0,1.705.651,2.473,2.473,0,0,0,1.7-.651,2.181,2.181,0,0,0,.713-1.643,2.3,2.3,0,0,0-.713-1.674,2.262,2.262,0,0,0-1.705-.682m16.279,7.1a11.244,11.244,0,0,0-2.264-.248,9.728,9.728,0,0,0-4.9,1.209,8.1,8.1,0,0,0-3.225,3.318,10.546,10.546,0,0,0-1.116,4.961,9.2,9.2,0,0,0,1.085,4.434,7.433,7.433,0,0,0,3.039,3.07,8.945,8.945,0,0,0,4.434,1.085,9.746,9.746,0,0,0,4.868-1.147l.031-.031V41.4l-.155.124A6.93,6.93,0,0,1,215.6,42.55a5.976,5.976,0,0,1-1.922.372,4.756,4.756,0,0,1-3.783-1.488,5.719,5.719,0,0,1-1.4-4.062,5.861,5.861,0,0,1,1.426-4.186,4.977,4.977,0,0,1,3.783-1.55,6.6,6.6,0,0,1,3.845,1.3l.155.124V29.123l-.031-.031a9.35,9.35,0,0,0-1.922-.62m13.3-.124a4.253,4.253,0,0,0-2.729.961,5.786,5.786,0,0,0-1.55,2.326h-.031V28.627H220.71V45.805h4.031V37.03a5.916,5.916,0,0,1,.992-3.628,3.108,3.108,0,0,1,2.6-1.4,9.944,9.944,0,0,1,1.209.155,3.181,3.181,0,0,1,.961.4l.155.124V28.658l-.093-.031a3.064,3.064,0,0,0-1.519-.279m10.977-.093a8.889,8.889,0,0,0-6.667,2.481,9.236,9.236,0,0,0-2.388,6.76,8.839,8.839,0,0,0,2.357,6.419,9.682,9.682,0,0,0,12.837-.155,9.2,9.2,0,0,0,2.388-6.667,8.973,8.973,0,0,0-2.264-6.481,8.16,8.16,0,0,0-6.264-2.357m3.225,13.209a4.064,4.064,0,0,1-3.38,1.426,4.235,4.235,0,0,1-3.473-1.488,6.125,6.125,0,0,1-1.24-4.124,6.51,6.51,0,0,1,1.24-4.217,4.264,4.264,0,0,1,3.442-1.488A4.123,4.123,0,0,1,243.2,33a6.36,6.36,0,0,1,1.24,4.186,7.174,7.174,0,0,1-1.178,4.279m14.295-5.7a9.657,9.657,0,0,1-2.45-1.271,1.761,1.761,0,0,1-.465-1.3,1.44,1.44,0,0,1,.651-1.24,2.987,2.987,0,0,1,1.767-.465,8.027,8.027,0,0,1,2.078.31,5.347,5.347,0,0,1,1.8.837l.155.124V28.968L261,28.937a11.188,11.188,0,0,0-1.829-.527,12.431,12.431,0,0,0-1.984-.186,7.184,7.184,0,0,0-4.744,1.488,4.584,4.584,0,0,0-1.829,3.783,4.923,4.923,0,0,0,.4,2.109,4.7,4.7,0,0,0,1.24,1.612,10.8,10.8,0,0,0,2.481,1.4c.93.4,1.643.713,2.078.961a4.209,4.209,0,0,1,.93.744,1.763,1.763,0,0,1,.248.961c0,1.147-.868,1.7-2.636,1.7a6.959,6.959,0,0,1-2.233-.4,8.626,8.626,0,0,1-2.264-1.147l-.155-.124v3.938l.093.031a12.027,12.027,0,0,0,2.171.682,13.845,13.845,0,0,0,2.326.279,7.551,7.551,0,0,0,4.992-1.488,4.748,4.748,0,0,0,1.891-3.907,4.348,4.348,0,0,0-.992-2.946,12.573,12.573,0,0,0-3.628-2.14m15.256-7.5a8.889,8.889,0,0,0-6.667,2.481,9.366,9.366,0,0,0-2.388,6.76,8.839,8.839,0,0,0,2.357,6.419,9.682,9.682,0,0,0,12.837-.155,9.2,9.2,0,0,0,2.388-6.667,8.973,8.973,0,0,0-2.264-6.481,8.16,8.16,0,0,0-6.264-2.357M276,41.464a4.064,4.064,0,0,1-3.38,1.426,4.2,4.2,0,0,1-3.47-1.49,6.125,6.125,0,0,1-1.24-4.124,6.51,6.51,0,0,1,1.24-4.217,4.264,4.264,0,0,1,3.442-1.488A4.165,4.165,0,0,1,275.941,33a6.36,6.36,0,0,1,1.24,4.186A6.765,6.765,0,0,1,276,41.464m26.884-9.519V28.627h-4.062V23.542l-.124.031-3.845,1.147-.093.031v3.876h-6.078v-2.17a3.4,3.4,0,0,1,.682-2.264,2.408,2.408,0,0,1,1.891-.744,4.524,4.524,0,0,1,1.8.4l.155.093v-3.5l-.093-.031a7.754,7.754,0,0,0-5.488.434,5.378,5.378,0,0,0-2.2,2.2,6.345,6.345,0,0,0-.806,3.194v2.388H281.8v3.287h2.822V45.805h4.062V31.945h6.078v8.837c0,3.628,1.7,5.457,5.116,5.457a10.625,10.625,0,0,0,1.7-.186,5.579,5.579,0,0,0,1.271-.4l.031-.031V42.3l-.155.124a2.62,2.62,0,0,1-.837.372,2.839,2.839,0,0,1-.806.124,2.148,2.148,0,0,1-1.767-.651,3.358,3.358,0,0,1-.558-2.2V31.945h4.124Z" transform="translate(245.369 -598.867)"/>
    <path id="Path_18" data-name="Path 18" d="M0,0H19.008V19.008H0Z" transform="translate(361 -585)"/>
    <path id="Path_19" data-name="Path 19" d="M67.7,0H86.708V19.008H67.7Z" transform="translate(314.292 -585)"/>
    <path id="Path_20" data-name="Path 20" d="M0,67.7H19.008V86.708H0Z" transform="translate(361 -631.708)"/>
    <path id="Path_21" data-name="Path 21" d="M67.7,67.7H86.708V86.708H67.7Z" transform="translate(314.292 -631.708)"/>
  </g>
</svg>
