<svg xmlns="http://www.w3.org/2000/svg" width="99.829" height="39.996" viewBox="0 0 99.829 39.996">
  <g id="EBay_logo" transform="translate(-0.1 -0.1)">
    <path id="e" d="M13.009,26.308C5.967,26.308.1,29.3.1,38.308c0,7.14,3.945,11.636,13.091,11.636,10.764,0,11.454-7.091,11.454-7.091H19.429s-1.118,3.818-6.557,3.818c-4.429,0-7.615-2.992-7.615-7.186H25.19V36.854c0-4.149-2.634-10.545-12.182-10.545Zm-.182,3.364c4.216,0,7.091,2.583,7.091,6.454H5.373C5.373,32.016,9.124,29.672,12.827,29.672Z" transform="translate(0 -17.481)"/>
    <path id="b" d="M75.212.1V27.937c0,1.58-.113,3.8-.113,3.8h4.975s.179-1.593.179-3.05c0,0,2.458,3.845,9.141,3.845,7.038,0,11.818-4.886,11.818-11.886,0-6.512-4.391-11.75-11.807-11.75-6.944,0-9.1,3.75-9.1,3.75V.1ZM88.121,12.338c4.779,0,7.818,3.547,7.818,8.307,0,5.1-3.51,8.443-7.784,8.443-5.1,0-7.852-3.983-7.852-8.4,0-4.114,2.469-8.352,7.818-8.352Z" transform="translate(-50.025)"/>
    <path id="a" d="M164.787,26.308c-10.593,0-11.272,5.8-11.272,6.727h5.273s.277-3.386,5.636-3.386c3.483,0,6.182,1.594,6.182,4.659V35.4h-6.182c-8.207,0-12.545,2.4-12.545,7.273,0,4.8,4.009,7.4,9.426,7.4,7.383,0,9.761-4.079,9.761-4.079,0,1.623.125,3.222.125,3.222h4.687s-.182-1.982-.182-3.25V35.007c0-7.186-5.8-8.7-10.909-8.7ZM170.6,38.671v1.455c0,1.9-1.171,6.613-8.062,6.613-3.774,0-5.392-1.883-5.392-4.068C157.151,38.7,162.6,38.671,170.6,38.671Z" transform="translate(-101.238 -17.481)"/>
    <path id="y" d="M214.879,29.041h5.932L229.323,46.1l8.493-17.055h5.373L227.72,59.4h-5.636l4.464-8.464Z" transform="translate(-143.26 -19.304)"/>
  </g>
</svg>
